<svg width="50" height="50" viewBox="0 0 50 50" fill="none" xmlns="http://www.w3.org/2000/svg">
<rect width="49.598" height="49.598" rx="24.799" fill="#CE0F0F" fill-opacity="0.3"/>
<path d="M30.3675 20.468L20.468 30.3675C20.1297 30.7057 19.5688 30.7057 19.2305 30.3675C18.8923 30.0293 18.8923 29.4683 19.2305 29.1301L29.13 19.2306C29.4683 18.8923 30.0292 18.8923 30.3675 19.2306C30.7057 19.5688 30.7057 20.1298 30.3675 20.468Z" fill="#CE0F0F"/>
<path d="M30.3675 30.3676C30.0292 30.7058 29.4683 30.7058 29.13 30.3676L19.2305 20.4681C18.8923 20.1299 18.8923 19.5689 19.2305 19.2306C19.5688 18.8924 20.1297 18.8924 20.468 19.2306L30.3675 29.1301C30.7057 29.4684 30.7057 30.0293 30.3675 30.3676Z" fill="#CE0F0F"/>
</svg>
